REM MD5 c86368d7ba193b30dcb25dcaddf8283c
FILE "Archer Maclean's 3D Pool (Europe).bin" BINARY
  TRACK 01 MODE2/2352
    INDEX 01 00:00:00
  TRACK 02 AUDIO
    INDEX 00 04:45:21
    INDEX 01 04:47:21
  TRACK 03 AUDIO
    INDEX 00 06:46:06
    INDEX 01 06:48:06
  TRACK 04 AUDIO
    INDEX 00 08:23:10
    INDEX 01 08:25:10
  TRACK 05 AUDIO
    INDEX 00 10:23:70
    INDEX 01 10:25:70
  TRACK 06 AUDIO
    INDEX 00 11:58:74
    INDEX 01 12:00:74
REM LEADOUT 16:01:01
